<svg id="Layer_1" data-name="Layer 1" xmlns="http://www.w3.org/2000/svg" viewBox="0 0 1920 7196"><defs><style>.cls-1{fill:#fdf8f4;}.cls-2{fill:#f5dcc3;}</style></defs><title>background</title><path id="Path_49-2" data-name="Path 49-2" class="cls-1" d="M-2.7-.5h1920V7195.15H-2.7Z"/><path id="Path_48" data-name="Path 48" class="cls-2" d="M1917.74,176.34s8.7-92.22,0-90.32c-94.88,20.65-853.78,62.8-962,459.35-95.41,458.15-408.42,371.15-676,596.06-4.82,4,4.73-4,0,0C25.83,1357.52-4,1457.88-4,1457.88L-2.57,1,1917.91-1.58Z"/><path id="Path_47" data-name="Path 47" class="cls-2" d="M1936,3938s-362.07-380.3-846.51-280.32C611.8,3756.24,707.61,3407.8,402.8,3335.47c-4.1-1-8.51-1.95-13-2.86-5.77-1.18,5.73,1.13,0,0-307-60.54-427.33-181-427.33-181L-2.44,6406S260.74,6154,609.43,6079.3s466.93,66.76,782.91,28,537.06-221.81,537.06-221.81Z"/></svg>